<svg id="Layer_1" data-name="Layer 1" xmlns="http://www.w3.org/2000/svg" viewBox="0 0 1200 628"><path d="M436.2,321.2C436.9,216,512,128,633.6,128c40.8,0,76.5,5.8,123,22.9L728.7,350.5H728C661.5,224.6,599.3,155.9,556.4,155.9c-17.9,0-28.6,12.9-28.6,38.7,0,115.1,113,236.7,213.8,236.7,9.3,0,15-.7,21.5-2.9l.7.8C731.6,477.8,679.4,500,615.7,500,518.5,500,435.5,431.3,436.2,321.2Z"/><path d="M589.1,196.6c1.4-1,2.1-2.7,2.8-4.1a5.9,5.9,0,0,0,.5-2.3c-.2-2.9-2.1-3.1-4.2-2.4a12.6,12.6,0,0,0-4.3,2.6,3.4,3.4,0,0,0-1.3,1.6,3,3,0,0,0,1.1,3.3C584.9,196.4,587.5,197.6,589.1,196.6Z" style="stroke:#fff;stroke-miterlimit:10;stroke-width:2px"/><path d="M684.8,272q-27.6,17.5-54.2,36.8c5.3-18.4,10.6-37.1,9.9-56.2-.1-3.7-.5-7.5-2.4-10.6s-5.4-5.6-9-4.9a54.2,54.2,0,0,0,7-12.4,7.1,7.1,0,0,0,.6-3.8,4.6,4.6,0,0,0-4.3-3,11.2,11.2,0,0,0-5.3,1.5c-12.7,6-23.3,15.6-34.2,24.5s-22.6,17.4-36.3,20.7c-1.7.3-3.8.5-4.6-1a3.9,3.9,0,0,1,0-3c3.4-12.5,13-22.5,17.4-34.7.3-.9.6-2.1,0-2.8s-3.4.3-4.3,1.9c-3.7,6.5-7.4,13-11.2,19.4-2.5,4.4-5,8.7-6.6,13.5s-1.5,9.5,2.2,11.5c1.8.9,3.9.7,5.8.4,13.3-2,25-9.5,35.5-17.9s20.1-17.9,31.6-24.7c2.2-1.3,4.9-2.6,7.2-1.4A82.1,82.1,0,0,1,613,246.3c-1.6,1.4-3.5,3.6-2.4,5.4s4.2,1.1,6-.3,4.4-5,7.2-6.8,7.1-2.1,8.9.7a7.9,7.9,0,0,1,1,4.5,161.8,161.8,0,0,1-4.8,42.7,172.9,172.9,0,0,1-6.8,21.1c-2.4,5.9-7.6,9.3-12.4,13.3-13,10.9-25.3,22.5-38.1,33.6-8,6.9-15.7,14.1-23.2,21.6s-14.5,15.2-19.1,24.9c-1.8,3.8-7.5,21.9,2.5,18.4,19.9-7.1,36-22.5,50-37.7a245.7,245.7,0,0,0,25.8-33.4c3.6-5.7,7.7-11.5,10.5-17.7,4.9-10.7,10.7-19.5,19.7-27.2,17.3-14.7,37.5-25.5,56.8-37.5,2.2-3.4,5.5-6.4,7.1-10.4Zm-73.7,65.5a91.2,91.2,0,0,1-6.6,11.2c-2,3.2-3.8,6.5-5.9,9.6-4.6,6.4-10.1,12-15.1,18.1a219.1,219.1,0,0,1-22.3,23.9,125.1,125.1,0,0,1-12.7,10.1c-4.7,3.2-9.6,7.1-15.4,8a1.7,1.7,0,0,1-1.2-.3,1.7,1.7,0,0,1-.1-.7,23.8,23.8,0,0,1,1.8-8.4c2.4-6,7-9.8,10.9-14.7s6-6.8,9.1-10.1c16.9-17.7,36.3-32.8,54.8-48.8A1.8,1.8,0,0,1,611.1,337.5Z" style="stroke:#fff;stroke-miterlimit:10;stroke-width:2px"/></svg>